<svg id="visual" viewBox="0 0 1200 1200" width="1200" height="1200" xmlns="http://www.w3.org/2000/svg" xmlns:xlink="http://www.w3.org/1999/xlink" version="1.1"><rect x="0" y="0" width="1200" height="1200" fill="#0B525B"></rect><g transform="translate(623.9645642037851 616.056340390569)"><path d="M110.4 -171.9C162.4 -114.1 237.2 -107.8 272.7 -71.4C308.1 -35 304.3 31.3 279 84.9C253.6 138.5 206.8 179.3 156.7 236.6C106.6 294 53.3 368 15.6 346.5C-22 325 -44.1 208 -64.1 140.8C-84 73.7 -101.9 56.3 -162.2 18C-222.5 -20.4 -325.3 -79.7 -343.5 -138.8C-361.7 -197.9 -295.5 -256.7 -224.2 -308.2C-152.8 -359.7 -76.4 -403.8 -23.6 -371.3C29.2 -338.8 58.4 -229.7 110.4 -171.9" fill="#144552"></path></g></svg>