<svg id="visual" viewBox="0 0 1200 1200" width="1200" height="1200" xmlns="http://www.w3.org/2000/svg" xmlns:xlink="http://www.w3.org/1999/xlink" version="1.1"><rect x="0" y="0" width="1200" height="1200" fill="#1b3a4b"></rect><defs><linearGradient id="grad1_0" x1="0%" y1="100%" x2="100%" y2="0%"><stop offset="30%" stop-color="#212f45" stop-opacity="1"></stop><stop offset="70%" stop-color="#212f45" stop-opacity="1"></stop></linearGradient></defs><defs><linearGradient id="grad1_1" x1="0%" y1="100%" x2="100%" y2="0%"><stop offset="30%" stop-color="#212f45" stop-opacity="1"></stop><stop offset="70%" stop-color="#1d3549" stop-opacity="1"></stop></linearGradient></defs><defs><linearGradient id="grad1_2" x1="0%" y1="100%" x2="100%" y2="0%"><stop offset="30%" stop-color="#1b3a4b" stop-opacity="1"></stop><stop offset="70%" stop-color="#1d3549" stop-opacity="1"></stop></linearGradient></defs><defs><linearGradient id="grad2_0" x1="0%" y1="100%" x2="100%" y2="0%"><stop offset="30%" stop-color="#212f45" stop-opacity="1"></stop><stop offset="70%" stop-color="#212f45" stop-opacity="1"></stop></linearGradient></defs><defs><linearGradient id="grad2_1" x1="0%" y1="100%" x2="100%" y2="0%"><stop offset="30%" stop-color="#1d3549" stop-opacity="1"></stop><stop offset="70%" stop-color="#212f45" stop-opacity="1"></stop></linearGradient></defs><defs><linearGradient id="grad2_2" x1="0%" y1="100%" x2="100%" y2="0%"><stop offset="30%" stop-color="#1d3549" stop-opacity="1"></stop><stop offset="70%" stop-color="#1b3a4b" stop-opacity="1"></stop></linearGradient></defs><g transform="translate(1200, 1200)"><path d="M-763.7 0C-761.8 -108.5 -760 -217.1 -705.5 -292.2C-651.1 -367.4 -544 -409.2 -466.7 -466.7C-389.4 -524.2 -341.8 -597.4 -269 -649.5C-196.2 -701.6 -98.1 -732.6 0 -763.7L0 0Z" fill="#1c374a"></path><path d="M-509.1 0C-507.9 -72.4 -506.7 -144.7 -470.4 -194.8C-434.1 -244.9 -362.7 -272.8 -311.1 -311.1C-259.6 -349.5 -227.9 -398.2 -179.4 -433C-130.8 -467.7 -65.4 -488.4 0 -509.1L0 0Z" fill="#1f3247"></path><path d="M-254.6 0C-253.9 -36.2 -253.3 -72.4 -235.2 -97.4C-217 -122.5 -181.3 -136.4 -155.6 -155.6C-129.8 -174.7 -113.9 -199.1 -89.7 -216.5C-65.4 -233.9 -32.7 -244.2 0 -254.6L0 0Z" fill="#212f45"></path></g><g transform="translate(0, 0)"><path d="M763.7 0C688.4 71.3 613 142.7 588.5 243.8C564 344.9 590.3 475.7 540 540C489.7 604.3 363 602 260.2 628.2C157.5 654.4 78.7 709.1 0 763.7L0 0Z" fill="#1c374a"></path><path d="M509.1 0C458.9 47.6 408.7 95.1 392.3 162.5C376 229.9 393.5 317.1 360 360C326.5 402.9 242 401.4 173.5 418.8C105 436.3 52.5 472.7 0 509.1L0 0Z" fill="#1f3247"></path><path d="M254.6 0C229.5 23.8 204.3 47.6 196.2 81.3C188 115 196.8 158.6 180 180C163.2 201.4 121 200.7 86.7 209.4C52.5 218.1 26.2 236.4 0 254.6L0 0Z" fill="#212f45"></path></g></svg>