<svg id="visual" viewBox="0 0 1200 1200" width="1200" height="1200" xmlns="http://www.w3.org/2000/svg" xmlns:xlink="http://www.w3.org/1999/xlink" version="1.1"><rect x="0" y="0" width="1200" height="1200" fill="#1b3a4b"></rect><defs><linearGradient id="grad1_0" x1="0%" y1="0%" x2="100%" y2="100%"><stop offset="30%" stop-color="#212f45" stop-opacity="1"></stop><stop offset="70%" stop-color="#212f45" stop-opacity="1"></stop></linearGradient></defs><defs><linearGradient id="grad1_1" x1="0%" y1="0%" x2="100%" y2="100%"><stop offset="30%" stop-color="#212f45" stop-opacity="1"></stop><stop offset="70%" stop-color="#1d3549" stop-opacity="1"></stop></linearGradient></defs><defs><linearGradient id="grad1_2" x1="0%" y1="0%" x2="100%" y2="100%"><stop offset="30%" stop-color="#1b3a4b" stop-opacity="1"></stop><stop offset="70%" stop-color="#1d3549" stop-opacity="1"></stop></linearGradient></defs><defs><linearGradient id="grad2_0" x1="0%" y1="0%" x2="100%" y2="100%"><stop offset="30%" stop-color="#212f45" stop-opacity="1"></stop><stop offset="70%" stop-color="#212f45" stop-opacity="1"></stop></linearGradient></defs><defs><linearGradient id="grad2_1" x1="0%" y1="0%" x2="100%" y2="100%"><stop offset="30%" stop-color="#1d3549" stop-opacity="1"></stop><stop offset="70%" stop-color="#212f45" stop-opacity="1"></stop></linearGradient></defs><defs><linearGradient id="grad2_2" x1="0%" y1="0%" x2="100%" y2="100%"><stop offset="30%" stop-color="#1d3549" stop-opacity="1"></stop><stop offset="70%" stop-color="#1b3a4b" stop-opacity="1"></stop></linearGradient></defs><g transform="translate(1200, 0)"><path d="M0 763.7C-108.5 761.8 -217.1 760 -292.2 705.5C-367.4 651.1 -409.2 544 -466.7 466.7C-524.2 389.4 -597.4 341.8 -649.5 269C-701.6 196.2 -732.6 98.1 -763.7 0L0 0Z" fill="#1c374a"></path><path d="M0 509.1C-72.4 507.9 -144.7 506.7 -194.8 470.4C-244.9 434.1 -272.8 362.7 -311.1 311.1C-349.5 259.6 -398.2 227.9 -433 179.4C-467.7 130.8 -488.4 65.4 -509.1 0L0 0Z" fill="#1f3247"></path><path d="M0 254.6C-36.2 253.9 -72.4 253.3 -97.4 235.2C-122.5 217 -136.4 181.3 -155.6 155.6C-174.7 129.8 -199.1 113.9 -216.5 89.7C-233.9 65.4 -244.2 32.7 -254.6 0L0 0Z" fill="#212f45"></path></g><g transform="translate(0, 1200)"><path d="M0 -763.7C71.3 -688.4 142.7 -613 243.8 -588.5C344.9 -564 475.7 -590.3 540 -540C604.3 -489.7 602 -363 628.2 -260.2C654.4 -157.5 709.1 -78.7 763.7 0L0 0Z" fill="#1c374a"></path><path d="M0 -509.1C47.6 -458.9 95.1 -408.7 162.5 -392.3C229.9 -376 317.1 -393.5 360 -360C402.9 -326.5 401.4 -242 418.8 -173.5C436.3 -105 472.7 -52.5 509.1 0L0 0Z" fill="#1f3247"></path><path d="M0 -254.6C23.8 -229.5 47.6 -204.3 81.3 -196.2C115 -188 158.6 -196.8 180 -180C201.4 -163.2 200.7 -121 209.4 -86.7C218.1 -52.5 236.4 -26.2 254.6 0L0 0Z" fill="#212f45"></path></g></svg>